<svg xmlns="http://www.w3.org/2000/svg" viewBox="0 0 24 24" width="48" height="48" style="font-size: 0;">
  <path d="M18.11 15.02L15.65 14.28C14.82 14.03 13.92 14.47 13.55 15.28L13.1 16.27C10.74 15.1 8.89 13.25 7.73 10.9L8.72 10.45C9.53 10.08 9.97 9.18 9.72 8.35L8.98 5.89C8.71 4.99 7.84 4.39 6.89 4.42L4.62 4.5C3.51 4.54 2.63 5.49 2.7 6.6C3.17 14 9 19.83 16.4 20.3C17.51 20.37 18.46 19.49 18.5 18.38L18.58 16.11C18.61 16.16 19.01 15.29 18.11 15.02Z" 
        fill="none" 
        stroke="#1C274C" 
        stroke-width="1.5" 
        stroke-linecap="round" 
        stroke-linejoin="round" />

  <path d="M16 3.5C18.5 4.5 20.5 6.5 21.5 9M15.5 6.5C16.8 7.2 17.8 8.2 18.5 9.5" 
        fill="none" 
        stroke="#007AFF" 
        stroke-width="1.5" 
        stroke-linecap="round" 
        stroke-linejoin="round" 
        opacity="0.5" />
</svg>
